<svg xmlns="http://www.w3.org/2000/svg" width="1432" height="315" viewBox="0 0 1432 315" fill="none">
    <path d="M1431.8 108.753C1430.46 90.8898 1422.16 77.6926 1405.51 70.2754C1397.73 66.8042 1389.56 64.8557 1381.04 64.7411C1360.1 64.4546 1341.22 70.8485 1324.06 82.6538C1322.85 83.4807 1321.66 84.3239 1320.27 85.29C1308.54 75.8506 1295.31 69.5877 1280.32 66.1329C1281.78 61.1307 1283.18 56.628 1284.4 52.0843C1287.35 41.2204 1294.43 35.4733 1305.6 34.4745C1310.59 34.0324 1315.55 33.2547 1320.62 32.6161C1320.95 31.5682 1321.31 30.6021 1321.55 29.6197C1321.64 29.2268 1321.47 28.7765 1321.4 28.1215H1238.36C1237.99 29.6279 1237.64 30.9951 1237.21 32.7062C1240.37 33.0582 1243.17 33.2055 1245.91 33.7049C1250.25 34.4991 1254.61 35.3505 1258.86 36.513C1262.31 37.4545 1264.3 40.0579 1264.68 43.6192C1265.43 50.6353 1263.93 57.3402 1262.19 63.464C1255.44 64.5446 1249.14 64.8967 1243.27 66.6732C1237.33 68.4825 1231.81 71.6917 1225.92 74.377C1225.92 72.7069 1226.06 70.9385 1225.89 69.2029C1225.54 65.6826 1225.41 62.0804 1224.51 58.6911C1220.81 44.7735 1211.09 36.7996 1197.78 32.8453C1183.29 28.5391 1170.97 30.07 1162.2 31.5436C1158.47 32.174 1144.85 34.6628 1126.55 44.2168C1117.12 49.1453 1101.34 59.6817 1084.18 76.1371C1070.58 89.1787 1058.73 103.751 1047.16 118.561C1045.42 120.78 1043.73 121.59 1040.87 121.476C1030.53 121.058 1020.19 121.017 1009.84 120.837C1008.71 120.821 1007.56 120.837 1006.16 120.837C1003.57 102.777 997.186 86.5835 986.311 72.2893C975.288 57.7987 961.131 47.6061 943.579 41.9327C946.631 39.3538 950.199 36.6604 954.315 34.0488C961.459 29.5051 968.259 26.4678 973.995 24.4047C972.841 23.4387 971.196 22.1042 969.167 20.5897C962.85 15.8659 951.156 7.27794 934.594 2.86525C917.737 -1.6293 903.785 0.409213 899.881 0.933168C886.625 2.73427 874.44 7.25338 864.015 16.0296C856.167 22.6364 848.999 29.8571 842.78 37.9866C823.844 62.7353 812.134 90.7588 805.351 121.001C805.032 122.409 804.631 123.793 804.115 125.757H698.447C696.41 130.931 694.651 135.418 692.818 140.068C697.809 140.723 702.662 141.198 707.457 142.008C719.854 144.112 731.441 148.304 741.67 155.811C756.547 166.732 763.273 181.272 760.909 199.725C760.025 206.668 757.513 213.061 753.748 219.537C752.185 217.965 750.942 216.754 749.747 215.509C737.341 202.607 724.928 189.721 711.385 177.973C692.867 161.902 673.293 147.493 650.323 138.3C649.93 138.144 649.611 137.808 648.858 137.268C655.47 110.808 662.123 84.2339 668.833 57.3812C671.116 58.3554 672.859 59.1086 674.618 59.8454C700.911 70.8403 727.751 73.1571 755.18 64.6429C766.719 61.0652 777.389 55.7111 786.481 47.5898C791.268 43.3081 795.253 38.3632 797.716 32.3623C800.375 25.8784 801.21 19.1734 798.894 12.4356C796.529 5.53415 789.893 1.68635 782.806 2.74245C776.088 3.74943 771.473 8.96442 770.761 16.1606C770.229 21.482 772.144 25.952 775.016 30.2665C778.559 35.5797 778.355 39.4275 773.601 43.6028C770.106 46.681 766.08 49.4236 761.85 51.3639C745.238 58.9694 727.988 60.1156 710.337 55.4327C698.423 52.2726 687.278 47.1722 676.14 42.0309C659.087 34.1552 641.698 27.2046 623.442 22.5381C609.629 19.0014 595.717 18.1664 581.675 20.4505C565.555 23.0703 552.069 30.3156 542.323 43.7829C541.816 44.487 541.21 45.1173 540.736 45.6822C509.697 35.1786 482.505 44.0531 456.9 61.4828C455.247 60.2957 453.717 59.1495 452.138 58.0607C432.098 44.1922 409.971 37.9293 385.806 41.7608C368.564 44.4951 355.57 53.9018 348.712 70.6029C348.475 71.1841 348.172 71.749 347.698 72.7642C337.583 59.8536 325.693 50.144 310.874 44.315C295.932 38.4369 280.523 37.1352 264.771 39.9105C263.232 37.8311 261.817 35.9481 260.434 34.0488C252.038 22.5381 240.541 16.3653 226.662 14.0075C212.767 11.6497 198.913 12.1327 185.19 14.7116C173.734 16.8647 162.458 19.9347 151.1 22.5791C129.963 27.4993 109.113 33.7213 87.5504 36.7259C71.6917 38.9363 55.792 40.0661 39.8105 38.1094C33.4768 37.3317 27.2986 35.9399 21.415 33.3938C16.7261 31.3635 14.2058 27.835 14.4431 22.6364C14.5495 20.2868 14.8931 17.9372 15.245 15.6039C15.6296 13.0333 16.1533 10.4872 16.6689 7.66272C14.6967 7.18789 13.1993 6.83585 11.4808 6.42651C7.59387 20.5651 3.78057 34.3353 0 47.9909C8.50218 52.7311 24.0418 56.4643 32.0448 57.6595C53.959 60.9342 75.6768 59.3788 97.321 55.3508C115.225 52.0188 132.549 46.5419 149.913 41.2122C164.741 36.6604 179.511 31.8875 195.1 30.5448C205.959 29.6034 216.638 30.2829 227.112 33.5412C234.387 35.8008 240.573 39.5749 245.123 45.7805C250.598 53.255 254.755 61.4255 256.866 70.4555C262.25 93.5341 257.856 115.074 245.835 135.189C242.406 140.928 237.824 145.799 232.521 149.941C223.749 156.785 213.856 159.061 202.907 157.506C190.698 155.77 180.444 150.138 171.983 141.476C166.631 135.999 161.983 129.826 157.172 123.85C154.602 120.657 152.344 117.21 150.143 114.148C159.586 99.314 168.734 84.938 178.202 70.0625C170.69 70.5783 163.98 71.0368 156.746 71.5362C159.463 75.6705 158.604 79.4119 157.262 82.9977C154.152 91.3318 149.84 99.0602 144.57 106.96C143.269 105.454 142.205 104.046 140.969 102.818C135.659 97.5456 129.832 93.0101 122.337 91.3646C109.906 88.6384 98.4257 91.1272 88.4178 98.8719C73.2055 110.645 64.8915 126.347 63.6068 145.553C62.2975 165.21 67.8211 182.959 79.3019 198.906C80.1447 200.069 80.9221 201.281 81.7159 202.443C71.5689 218.678 61.6347 234.576 51.5205 250.753C53.2143 251.859 54.6136 252.767 56.1275 253.75C57.2158 252.17 58.0996 250.991 58.8688 249.746C65.3171 239.317 74.3348 231.989 85.6683 227.454C98.9003 222.157 112.419 220.069 126.428 223.893C135.462 226.357 143.923 230.262 152.115 234.691C177.588 248.469 202.972 262.411 228.389 276.296C229.796 277.066 231.196 277.844 232.939 278.801C240.721 267.324 248.413 255.985 256.26 244.425C254.583 243.475 253.216 242.698 251.727 241.854C250.982 242.755 250.467 243.459 249.877 244.081C246.645 247.528 243.56 251.122 240.123 254.347C235.213 258.957 229.674 259.391 223.839 255.977C221.163 254.413 218.471 252.857 215.762 251.351C201.041 243.172 186.426 234.789 171.541 226.914C160.429 221.035 148.702 216.524 136.477 213.389C114.964 207.879 95.1852 211.375 77.1825 224.515C76.4215 225.071 75.6031 225.546 74.3675 226.349C76.8388 220.904 135.143 134.354 137.696 132.249C138.744 133.478 139.791 134.714 140.838 135.942C147.008 143.122 153.219 150.26 160.65 156.229C166.279 160.748 172.572 163.957 179.536 165.66C187.343 167.567 195.297 168.116 203.316 167.224C206.376 166.88 209.42 166.487 212.604 166.094C213.25 167.764 213.807 169.287 214.429 170.777C221.72 188.321 231.908 202.828 246.244 212.996C257.283 220.823 267.577 223.901 270.99 224.834C289.524 229.902 304.606 226.463 308.165 225.579C315.088 223.86 320.203 221.461 322.657 220.217C331.683 215.624 339.433 209.058 346.069 200.83C355.251 189.459 360.938 176.401 364.317 162.271C364.956 159.585 365.52 156.884 366.249 153.576C367.083 154.665 367.558 155.197 367.942 155.787C382.066 177.629 402.565 200.716 429.798 220.544C436.164 225.178 445.411 231.334 457.498 237.434C469.339 230.999 480.909 223.369 491.899 214.83C502.954 206.234 513.052 196.581 522.929 186.102C523.117 187.109 523.248 187.412 523.208 187.682C523.077 188.558 522.888 189.426 522.7 190.286C519.141 206.913 519.329 223.532 523.707 239.939C531.652 269.755 550.727 290.369 578.083 303.534C600.169 314.16 623.769 316.24 647.827 313.833C669.766 311.631 690.109 304.32 709.175 293.366C742.906 273.988 768.077 246.234 787.389 212.881C797.806 194.895 805.179 175.549 811.57 155.827C813.116 151.055 814.647 146.282 816.185 141.517H845.505C845.726 142.819 845.939 143.817 846.061 144.824C848.402 164.039 855.218 181.477 867.125 196.778C878.851 211.85 893.76 222.19 912.549 226.57C913.662 226.832 914.725 227.298 915.666 227.618C916.542 230.589 917.213 233.324 918.138 235.968C923.808 252.104 932.851 265.596 948.349 273.881C966.442 283.558 985.705 286.538 1005.91 283.583C1024.05 280.93 1040.5 273.799 1056.01 264.262C1056.73 263.811 1057.38 263.238 1058.29 262.551C1056.87 260.643 1055.6 258.948 1054.42 257.344C1050.29 259.587 1046.73 261.675 1043.03 263.525C1032.01 269.026 1020.11 271.032 1008.02 272.547C998.184 273.783 988.528 273.3 979.019 270.647C958.316 264.876 941.885 253.463 931.697 234.052C930.895 232.521 930.265 230.909 929.578 229.394C930.052 229.091 930.167 228.96 930.298 228.936C930.87 228.829 931.451 228.69 932.032 228.674C947.629 228.182 961.475 223 973.758 213.389C976.294 211.408 979.044 209.402 982.031 208.338C1001.36 201.436 1021.14 199.57 1041.37 203.712C1055.3 206.561 1068.08 212.308 1080.24 219.439C1112.86 238.596 1145.37 257.941 1177.93 277.213C1179.43 278.097 1180.92 278.99 1182.52 279.948C1191.85 270.246 1200.95 260.79 1210.27 251.106C1209.71 250.5 1208.64 249.37 1207.41 248.068C1205.09 249.845 1203.01 251.466 1200.91 253.054C1194.54 257.86 1187.5 258.817 1179.91 256.812C1174.83 255.469 1170.35 252.964 1165.99 250.123C1151.74 240.856 1137.57 231.465 1123.15 222.476C1107.34 212.619 1091.01 203.679 1073.71 196.622C1061.08 191.465 1048.04 188.845 1034.38 189.23C1019.38 189.655 1005.2 193.405 991.507 199.324C990.083 199.938 988.635 200.487 986.327 201.412C987.374 200.028 987.784 199.43 988.242 198.874C1004.05 179.708 1019.89 160.568 1035.61 141.337C1037.17 139.438 1038.69 138.93 1040.93 139.331C1048.64 140.698 1056.37 141.975 1064.08 143.293C1084.48 146.757 1104.86 150.342 1125.59 151.325C1135.27 151.783 1144.82 150.932 1154.14 148.418C1174.07 143.056 1190.8 132.315 1205.05 117.521C1206.01 116.531 1207.02 115.589 1208.59 114.05C1208.75 115.95 1208.77 116.94 1208.92 117.914C1209.74 123.457 1210.23 129.081 1211.49 134.534C1215.2 150.547 1222.23 165.177 1231.05 178.955C1232.44 181.133 1232.78 183.073 1232.13 185.554C1229.91 193.986 1228.12 202.533 1225.7 210.9C1224.14 216.254 1221.97 221.469 1219.65 226.561C1217.73 230.786 1214.16 233.512 1209.64 234.699C1206.22 235.6 1202.76 236.402 1199.27 236.959C1195.22 237.605 1191.11 237.941 1186.62 238.457C1186.8 240.078 1186.96 241.453 1187.13 243.009H1268.81C1269.09 241.543 1269.36 240.168 1269.71 238.35C1267.72 238.154 1266.12 238.105 1264.57 237.835C1259.35 236.91 1254.09 236.107 1248.94 234.871C1245.3 233.995 1243.23 231.302 1242.91 227.495C1242.19 218.661 1244.7 210.376 1247.03 201.322C1248.64 203.106 1249.73 204.277 1250.78 205.472C1269.75 227.143 1291.67 245.186 1316.77 259.374C1319.46 260.889 1321.36 260.84 1324 259.333C1349.3 244.908 1371.5 226.725 1390.56 204.727C1405.19 187.838 1417.3 169.36 1425.12 148.287C1429.84 135.557 1432.81 122.491 1431.79 108.794L1431.8 108.753ZM93.2703 184.964C82.1087 171.947 72.9355 158.595 72.6327 141.042C72.469 131.472 74.4575 122.515 80.6685 114.926C87.4931 106.584 96.3063 103.162 106.993 104.554C110.749 105.045 114.08 106.551 117.108 108.753C123.278 113.248 128.024 119.052 132.549 125.438C119.358 145.422 106.437 165.005 93.2622 184.964H93.2703ZM563.133 40.6555C568.427 38.1995 573.959 36.7832 579.752 36.292C591.855 35.2768 603.663 37.2826 615.267 40.3281C626.257 43.218 637.099 46.6728 647.991 49.9148C649.235 50.2832 650.413 50.8727 651.96 51.5031C645.233 78.4295 638.548 105.176 631.772 132.274C604.261 127.313 577.993 129.155 552.986 144.939C555.391 139.667 557.56 135.262 559.434 130.743C561.349 126.118 562.977 121.369 564.892 116.261C566.398 116.367 567.969 116.465 569.532 116.58C577.15 117.145 584.58 116.293 591.765 113.625C595.693 112.167 599.253 110.104 602.125 106.993C605.406 103.448 606.928 99.273 606.585 94.4183C605.856 84.3076 596.037 78.7405 587.338 83.8819C584.13 85.7812 581.585 88.8676 578.909 91.5856C576.741 93.7879 574.957 96.3749 572.78 98.569C568.263 103.137 562.944 103.497 557.249 101.091C552.846 99.2321 549.647 96.0229 547.339 91.9213C538.633 76.481 542.258 50.3405 563.141 40.6555H563.133ZM351.912 174.117C351.143 178.603 350.005 183.106 348.36 187.339C341.2 205.816 327.387 215.329 307.756 216.402C295.981 217.04 284.835 214.42 274.549 208.641C254.084 197.146 241.997 178.8 233.004 157.858C235.925 155.549 238.716 153.601 241.212 151.325C258.748 135.336 269.378 115.483 273.837 92.2651C276.513 78.3558 276.333 64.6265 270.605 51.3557C270.45 50.9955 270.54 50.5206 270.507 49.8657C276.243 49.9967 281.693 51.1346 287.045 52.8211C302.347 57.6268 314.564 66.8942 324.597 79.1663C338.77 96.4977 347.027 116.531 351.044 138.414C353.221 150.26 353.958 162.197 351.912 174.133V174.117ZM461.008 223.033C458.242 224.531 456.123 224.629 453.3 223.082C420.69 205.268 394.284 180.887 374.816 149.163C366.723 135.974 360.668 121.901 357.738 106.617C356.282 99.0274 355.725 91.3892 357.002 83.6936C359.988 65.699 371.887 53.779 389.865 50.5779C400.282 48.7195 410.412 49.4645 420.453 52.8048C434.986 57.6432 439.757 60.0091 457.129 71.8636C458.185 71.1104 459.372 70.3081 460.517 69.4567C473.888 59.4688 488.781 52.8375 505.238 50.1522C515.614 48.4576 525.777 50.0622 535.924 54.3275C531.595 65.4206 530.4 76.5465 533.502 87.8852C536.636 99.3549 543.665 107.705 554.589 113.092C554.008 115.237 553.55 117.227 552.928 119.151C547.331 136.515 538.428 152.127 527.348 166.495C509.231 189.991 487.178 208.911 461.025 223.033H461.008ZM791.063 174.321C784.018 196.54 774.648 217.72 761.62 237.147C750.483 253.758 737.137 268.273 720.566 279.637C700.149 293.628 677.499 300.816 652.843 301.815C632.255 302.641 612.108 300.423 592.772 292.875C573.631 285.4 557.257 274.004 544.95 257.426C529.672 236.852 524.73 213.643 529.394 188.558C533.731 165.21 553.698 144.456 580.08 140.199C595.93 137.636 611.29 139.732 626.314 144.996C626.854 145.185 627.337 145.528 628.04 145.913C627.951 146.797 627.959 147.673 627.754 148.492C622.222 170.564 616.764 192.652 611.036 214.666C609.743 219.635 607.706 224.449 605.635 229.165C603.557 233.88 599.809 237.041 594.695 238.056C589.056 239.177 583.353 239.947 577.674 240.864C576.52 241.052 575.366 241.216 574.016 241.421C573.648 242.73 573.304 243.967 572.862 245.571H652.811C653.13 244.491 653.506 243.173 654.022 241.437C649.259 240.798 644.889 240.348 640.569 239.57C637.827 239.079 635.119 238.26 632.492 237.319C629.603 236.279 627.746 234.02 627.836 230.933C627.975 226.234 627.975 221.404 629.047 216.876C633.908 196.467 639.12 176.147 644.218 155.795C644.398 155.091 644.677 154.411 645.086 153.2C646.796 154.059 648.343 154.771 649.824 155.59C669.357 166.356 686.86 179.913 703.382 194.805C718.676 208.591 732.816 223.491 746.31 239.03C747.349 240.225 748.438 241.371 749.796 242.87C751.187 240.52 752.39 238.678 753.405 236.738C759.607 224.891 764.386 212.537 766.571 199.267C768.552 187.24 766.391 176.041 760.172 165.594C754.673 156.36 747.161 149.196 737.824 143.924C736.589 143.228 735.361 142.508 733.217 141.263H800.547C797.266 152.774 794.459 163.63 791.079 174.305L791.063 174.321ZM845.317 125.217H821.218C821.398 123.67 821.439 122.384 821.717 121.156C827.085 96.9562 835.554 73.8121 846.127 51.4703C849.384 44.5852 853.532 37.9539 858.197 31.912C871.044 15.2928 888.458 7.97382 909.292 8.45684C917.941 8.65332 926.321 10.2661 934.315 13.6063C936.484 14.5151 938.62 15.5957 940.592 16.8729C946.803 20.9172 947.768 29.0303 942.711 34.4581C941.41 35.8499 939.733 36.8814 938.325 38.1749C936.648 39.7304 934.856 39.9269 932.622 39.5339C921.263 37.52 909.955 37.7902 898.842 41.1222C883.016 45.8705 870.971 55.6538 861.986 69.3585C853.737 81.9498 849.236 95.9246 847.043 110.702C846.348 115.368 845.922 120.076 845.325 125.209L845.317 125.217ZM912.851 209.181C911.706 208.55 910.323 207.887 909.03 207.069C900.454 201.592 893.327 194.567 887.23 186.479C874.53 169.622 867.19 150.457 863.041 129.933C860.897 119.306 859.907 108.59 860.398 97.7585C860.774 89.5881 862.198 81.6141 865.488 74.0577C872.239 58.5273 884.325 50.6189 901.01 49.6774C919.03 48.6622 935.036 54.1965 949.282 65.1668C967.588 79.2727 981.008 103.342 986.163 122.835C940.109 133.003 916.386 162.107 912.851 209.181ZM988.88 184.391C984.469 198.153 976.286 208.788 962.441 214.118C950.264 218.8 937.916 218.276 925.347 214.699C923.097 194.952 925.928 176.671 937.687 160.502C940.265 156.957 943.423 153.658 946.876 150.956C959.233 141.312 973.741 137.211 989.502 135.115C990.116 138.717 990.795 142 991.229 145.316C992.947 158.48 992.98 171.595 988.88 184.383V184.391ZM1001.56 172.905C1004.68 160.519 1006.78 148.148 1006.91 135.565C1011.16 134.435 1023.22 135.942 1030.43 138.545C1020.71 150.113 1011.13 161.509 1001.56 172.905ZM1209.57 101.582C1206.66 106.633 1202.99 111.046 1198.68 114.934C1184.34 127.861 1167.41 134.231 1148.22 134.771C1136.21 135.107 1124.29 133.789 1112.45 131.955C1092.75 128.901 1073.08 125.618 1053.39 122.425C1053.1 122.376 1052.83 122.237 1051.82 121.893C1055.32 117.44 1058.45 113.354 1061.68 109.359C1074.46 93.5668 1088.24 78.7405 1104.25 66.1492C1118.67 54.8105 1134.28 45.6577 1152.32 41.3269C1163.15 38.7235 1174.05 38.6498 1184.77 41.7198C1217.02 50.9382 1220.02 83.3988 1209.56 101.59L1209.57 101.582ZM1415.36 145.185C1408.87 164.006 1398.59 180.674 1385.94 195.926C1368.66 216.762 1348.17 233.725 1324.29 246.537C1323 247.233 1321.68 247.855 1320.3 248.543C1305.29 240.856 1291.45 231.621 1278.8 220.601C1259.89 204.121 1244.08 185.128 1232.53 162.778C1226.38 150.891 1221.88 138.414 1220.17 125.061C1219.14 117.079 1219.16 109.105 1221.56 101.336C1226.13 86.5344 1236.4 77.9219 1251.28 74.5816C1261.74 72.232 1272.08 72.8379 1282.35 75.9734C1295.33 79.9358 1307.41 85.6093 1318.17 93.968C1318.86 94.5001 1319.63 94.934 1320.49 95.4989C1321.82 94.492 1323.11 93.5095 1324.41 92.5435C1336.71 83.4316 1350.42 77.3979 1365.34 74.2378C1375.86 72.011 1386.3 72.9443 1396.3 76.7675C1410.45 82.1708 1418.08 92.961 1420.22 107.73C1422.08 120.641 1419.52 133.044 1415.34 145.176L1415.36 145.185Z" fill="#C30203"/>
</svg>