<svg xmlns="http://www.w3.org/2000/svg" width="171" height="171" viewBox="0 0 171 171" fill="none">
    <g clip-path="url(#clip0_362_53)">
        <path d="M170.64 112.472V8.38603C170.64 3.75524 166.885 0 162.254 0H122.051C117.42 0 113.665 3.75524 113.665 8.38603V105.335C113.665 109.966 109.91 113.721 105.279 113.721H65.3532C60.7224 113.721 56.9671 109.966 56.9671 105.335V9.07683C56.9671 4.44604 53.2119 0.690803 48.5811 0.690803H8.38603C3.75524 0.690803 0 4.44604 0 9.07683V105.757C0 110.388 3.75524 114.143 8.38603 114.143H48.4968C53.1276 114.143 56.8828 117.898 56.8828 122.529V162.311C56.8828 166.941 60.638 170.697 65.2688 170.697H112.388C113.239 170.697 114.055 170.359 114.657 169.757L169.701 114.75C170.303 114.147 170.644 113.328 170.644 112.476L170.64 112.472Z" fill="white"/>
    </g>
    <defs>
        <clipPath id="clip0_362_53">
            <rect width="170.64" height="170.693" fill="white"/>
        </clipPath>
    </defs>
</svg>